<svg width="64" height="19" viewBox="0 0 64 19" fill="none" xmlns="http://www.w3.org/2000/svg">
<path d="M5.62891 0.867188C7.83984 0.867188 9.45312 1.34375 10.4688 2.29688C11.4844 3.24219 11.9922 4.54688 11.9922 6.21094C11.9922 6.96094 11.8789 7.67969 11.6523 8.36719C11.4258 9.04688 11.0547 9.65234 10.5391 10.1836C10.0312 10.7148 9.35156 11.1367 8.5 11.4492C7.64844 11.7539 6.59766 11.9062 5.34766 11.9062H3.78906V18H0.15625V0.867188H5.62891ZM5.44141 3.84375H3.78906V8.92969H4.98438C5.66406 8.92969 6.25391 8.83984 6.75391 8.66016C7.25391 8.48047 7.64062 8.19922 7.91406 7.81641C8.1875 7.43359 8.32422 6.94141 8.32422 6.33984C8.32422 5.49609 8.08984 4.87109 7.62109 4.46484C7.15234 4.05078 6.42578 3.84375 5.44141 3.84375ZM29.4119 0.867188V11.9531C29.4119 13.1328 29.1502 14.1992 28.6267 15.1523C28.1111 16.0977 27.3259 16.8477 26.2712 17.4023C25.2244 17.957 23.9041 18.2344 22.3103 18.2344C20.0447 18.2344 18.3181 17.6562 17.1306 16.5C15.9431 15.3438 15.3494 13.8125 15.3494 11.9062V0.867188H18.9705V11.3555C18.9705 12.7695 19.2595 13.7617 19.8377 14.332C20.4158 14.9023 21.2712 15.1875 22.4041 15.1875C23.2009 15.1875 23.8455 15.0508 24.3377 14.7773C24.8377 14.5039 25.2048 14.082 25.4392 13.5117C25.6736 12.9414 25.7908 12.2148 25.7908 11.332V0.867188H29.4119ZM49.0464 18H44.4292L36.9761 5.03906H36.8706C36.9019 5.57812 36.9292 6.12109 36.9527 6.66797C36.9761 7.21484 36.9995 7.76172 37.023 8.30859C37.0464 8.84766 37.0698 9.39062 37.0933 9.9375V18H33.8472V0.867188H38.4292L45.8706 13.6992H45.9527C45.937 13.168 45.9175 12.6406 45.8941 12.1172C45.8706 11.5938 45.8472 11.0703 45.8237 10.5469C45.8081 10.0234 45.7925 9.5 45.7769 8.97656V0.867188H49.0464V18ZM63.4778 18H53.6106V0.867188H63.4778V3.84375H57.2434V7.60547H63.0442V10.582H57.2434V15H63.4778V18Z" fill="white"/>
</svg>
